:version 1.10
:name ASF
:units
  mass 1
  length 1
  angle deg
:documentation
  ASF file generated by Kaydara
:root
  axis xyz
  order  tx ty tz rx ry rz
  position 0 0 0
  orientation 0 0 0
:bonedata
  begin
    id 1
    name lfemurDummy
    direction 0.61522 -0.761478 0.204097
    length 5.68318
    axis 0 -0 0 xyz
  end
  begin
    id 2
    name lfemur
    direction 0.34202 -0.939693 -5.84747e-008
    length 16.9147
    axis 0 -0 20 xyz
    dof rx ry rz
    limits( -inf , inf )
( -inf , inf )
( -inf , inf )

  end
  begin
    id 3
    name ltibia
    direction 0.34202 -0.939693 1.20839e-009
    length 18.0532
    axis 0 -0 20 xyz
    dof rz ry rx
    limits( -inf , inf )
( -inf , inf )
( -inf , inf )

  end
  begin
    id 4
    name lfoot
    direction 0.0841971 -0.23133 0.969225
    length 5.23822
    axis -90 7.62852e-016 20 xyz
    dof ry rx rz
    limits( -inf , inf )
( -inf , inf )
( -inf , inf )

  end
  begin
    id 5
    name ltoes
    direction 0 0 0
    length 0
    axis 0 0 0 xyz
    dof rz ry rx
    limits( -inf , inf )
( -inf , inf )
( -inf , inf )

  end
  begin
    id 6
    name rfemurDummy
    direction -0.625247 -0.75382 0.202044
    length 5.74091
    axis 0 -0 0 xyz
  end
  begin
    id 7
    name rfemur
    direction -0.34202 -0.939693 -1.47013e-008
    length 16.4922
    axis 0 -0 -20 xyz
    dof rx ry rz
    limits( -inf , inf )
( -inf , inf )
( -inf , inf )

  end
  begin
    id 8
    name rtibia
    direction -0.34202 -0.939693 -7.74345e-010
    length 18.2421
    axis 0 -0 -20 xyz
    dof rz ry rx
    limits( -inf , inf )
( -inf , inf )
( -inf , inf )

  end
  begin
    id 9
    name rfoot
    direction -0.124331 -0.341598 0.931586
    length 5.45787
    axis -90 -7.62852e-016 -20 xyz
    dof ry rx rz
    limits( -inf , inf )
( -inf , inf )
( -inf , inf )

  end
  begin
    id 10
    name rtoes
    direction 0 0 0
    length 0
    axis 0 0 0 xyz
    dof rz ry rx
    limits( -inf , inf )
( -inf , inf )
( -inf , inf )

  end
  begin
    id 11
    name lowerbackDummy
    direction 0 0 0
    length 0
    axis 0 -0 0 xyz
  end
  begin
    id 12
    name lowerback
    direction -0.0218484 0.994884 -0.0986304
    length 4.45607
    axis 0 -0 0 xyz
    dof rx ry rz
    limits( -inf , inf )
( -inf , inf )
( -inf , inf )

  end
  begin
    id 13
    name upperback
    direction -0.00973057 0.999717 -0.0217111
    length 4.47449
    axis 0 -0 0 xyz
    dof rx ry rz
    limits( -inf , inf )
( -inf , inf )
( -inf , inf )

  end
  begin
    id 14
    name thorax
    direction -0.000928171 0.999699 0.0245198
    length 4.50973
    axis 0 -0 0 xyz
    dof rx ry rz
    limits( -inf , inf )
( -inf , inf )
( -inf , inf )

  end
  begin
    id 15
    name rclavicle
    direction -0.9009 0.425937 -0.0834055
    length 7.28587
    axis 0 -0 0 xyz
    dof rx ry rz
    limits( -inf , inf )
( -inf , inf )
( -inf , inf )

  end
  begin
    id 16
    name rhumerus
    direction -1 -2.23604e-007 -1.42637e-007
    length 13.5704
    axis 180 30 90 xyz
    dof rx ry rz
    limits( -inf , inf )
( -inf , inf )
( -inf , inf )

  end
  begin
    id 17
    name rradius
    direction -1 5.68281e-008 -4.4952e-007
    length 8.06782
    axis 180 30 90 xyz
    dof rz ry rx
    limits( -inf , inf )
( -inf , inf )
( -inf , inf )

  end
  begin
    id 18
    name rwrist
    direction -1 1.51393e-007 1.38143e-007
    length 4.03391
    axis -90 -90 0 xyz
    dof rz rx ry
    limits( -inf , inf )
( -inf , inf )
( -inf , inf )

  end
  begin
    id 19
    name rthumb
    direction 0 0 0
    length 0
    axis 0 0 0 xyz
    dof ry rx rz
    limits( -inf , inf )
( -inf , inf )
( -inf , inf )

  end
  begin
    id 20
    name rhand
    direction -1 -3.34077e-007 -5.59631e-007
    length 1.29744
    axis -90 -90 0 xyz
    dof ry rx rz
    limits( -inf , inf )
( -inf , inf )
( -inf , inf )

  end
  begin
    id 21
    name rfingers
    direction 0 0 0
    length 0
    axis 0 0 0 xyz
    dof rz ry rx
    limits( -inf , inf )
( -inf , inf )
( -inf , inf )

  end
  begin
    id 22
    name lclavicle
    direction 0.940017 0.332249 -0.0773232
    length 8.29589
    axis 0 -0 0 xyz
    dof rx ry rz
    limits( -inf , inf )
( -inf , inf )
( -inf , inf )

  end
  begin
    id 23
    name lhumerus
    direction 1 7.41158e-008 -1.44768e-008
    length 12.0042
    axis 180 -30 -90 xyz
    dof rx ry rz
    limits( -inf , inf )
( -inf , inf )
( -inf , inf )

  end
  begin
    id 24
    name lradius
    direction 1 -1.32972e-007 3.10821e-007
    length 8.1902
    axis 180 -30 -90 xyz
    dof rz ry rx
    limits( -inf , inf )
( -inf , inf )
( -inf , inf )

  end
  begin
    id 25
    name lwrist
    direction 1 3.08957e-007 4.01394e-007
    length 4.09509
    axis -90 90 0 xyz
    dof rz rx ry
    limits( -inf , inf )
( -inf , inf )
( -inf , inf )

  end
  begin
    id 26
    name lthumb
    direction 0 0 0
    length 0
    axis 0 0 0 xyz
    dof ry rx rz
    limits( -inf , inf )
( -inf , inf )
( -inf , inf )

  end
  begin
    id 27
    name lhand
    direction 1 -1.64125e-007 -6.99514e-007
    length 1.37229
    axis -90 90 0 xyz
    dof ry rx rz
    limits( -inf , inf )
( -inf , inf )
( -inf , inf )

  end
  begin
    id 28
    name lfingers
    direction 0 0 0
    length 0
    axis 0 0 0 xyz
    dof rz ry rx
    limits( -inf , inf )
( -inf , inf )
( -inf , inf )

  end
  begin
    id 29
    name lowerneck
    direction -0.030798 0.998024 0.0547665
    length 3.93918
    axis 0 -0 0 xyz
    dof rx ry rz
    limits( -inf , inf )
( -inf , inf )
( -inf , inf )

  end
  begin
    id 30
    name upperneck
    direction 0.0531588 0.996611 -0.0627736
    length 3.95491
    axis 0 -0 0 xyz
    dof rx ry rz
    limits( -inf , inf )
( -inf , inf )
( -inf , inf )

  end
  begin
    id 31
    name head
    direction 0 0 0
    length 0
    axis 0 0 0 xyz
    dof rx ry rz
    limits( -inf , inf )
( -inf , inf )
( -inf , inf )

  end
:hierarchy
  begin
    root lfemurDummy rfemurDummy lowerbackDummy
    lfemurDummy lfemur
    lfemur ltibia
    ltibia lfoot
    lfoot ltoes
    rfemurDummy rfemur
    rfemur rtibia
    rtibia rfoot
    rfoot rtoes
    lowerbackDummy lowerback
    lowerback upperback
    upperback thorax
    thorax rclavicle lclavicle lowerneck
    rclavicle rhumerus
    rhumerus rradius
    rradius rwrist
    rwrist rthumb rhand
    rhand rfingers
    lclavicle lhumerus
    lhumerus lradius
    lradius lwrist
    lwrist lthumb lhand
    lhand lfingers
    lowerneck upperneck
    upperneck head
  end

:SAMPLES-PER-SECOND 30
:FULLY-SPECIFIED
:DEGREES
36
root  13.85886725 38.73577869 -4.580644547 -7.656005859 -82.75980377 9.606994629
lowerback  11.96259975 -0.3031980097 -1.060739994
upperback  4.313250065 -0.6354830265 1.486039996
thorax  -2.167330027 -0.3984879851 2.231240034
lowerneck  1.170339942 6.595220089 -3.708110094
upperneck  10.93490028 8.538180351 2.056090117
head  3.044250011 4.078320026 1.467149973
lclavicle  0 -9.442270133e-015 7.951389973e-016
lhumerus  -4.502019882 -12.60849953 81.59079742
lradius  2.42063373e-031 -2.570870744e-031 133.276001
lwrist  -7.062250077e-031 -3.531125038e-031 -12.10159969
lhand  -1.496451383e-031 -27.76390076 20.11240005
lfingers  90 7.125020027 -90
lthumb  89.89689403 5.08795885 91.16245106
rclavicle  0 -9.442270133e-015 7.951389973e-016
rhumerus  -13.49470043 36.97529984 -85.34860229
rradius  -2.096477744e-031 2.84141252e-031 126.4209976
rwrist  7.062250077e-031 -0 5.756569862
rhand  -7.920061211e-032 -33.2840004 9.303460121
rfingers  -90 -7.125020027 -90
rthumb  -92.93752616 -24.25625642 -97.11982154
rfemur  -28.4368 9.166700363 -1.409829974
rtibia  -0 0 47.75289917
rfoot  -9.039066583e-032 -12.41160011 6.774829865
rtoes  5.373923086 19.29304026 -105.8922705
lfemur  -5.870490074 -6.277170181 -9.756059647
ltibia  -0 0 53.74779892
lfoot  -0 -6.999030113 -7.850580215
ltoes  -4.250644065 -19.5611806 -102.515957
37
root  13.71253306 39.02911089 -4.510710934 -17.86602783 -84.21379852 20.184021
lowerback  11.40060043 -0.03836970031 -1.221400023
upperback  4.21254015 -0.2992340028 1.172299981
thorax  -1.983029962 -0.2271270007 1.945140004
lowerneck  1.141890049 6.740089893 -3.375730038
upperneck  11.65110016 8.750189781 1.586349964
head  3.327399969 4.160299778 1.290079951
lclavicle  0 -9.442270133e-015 7.951389973e-016
lhumerus  -7.735770226 -12.39280033 82.1875
lradius  2.411329797e-031 -2.579599319e-031 133.0690002
lwrist  -3.531125038e-031 -3.531125038e-031 -11.52810001
lhand  -1.496451383e-031 -27.76390076 20.11240005
lfingers  90 7.125020027 -90
lthumb  89.89689403 5.08795885 91.16245106
rclavicle  0 -9.442270133e-015 7.951389973e-016
rhumerus  -17.31410027 37.40110016 -87.27069855
rradius  -2.003250029e-031 2.907891566e-031 124.5630035
rwrist  3.531125038e-031 -0 4.580840111
rhand  -7.920061211e-032 -33.2840004 9.303460121
rfingers  -90 -7.125020027 -90
rthumb  -92.93752616 -24.25625642 -97.11982154
rfemur  -28.27820015 9.31221962 -2.469929934
rtibia  -0 0 45.70930099
rfoot  -0 -10.75959969 7.433959961
rtoes  5.373923086 19.29304026 -105.8922705
lfemur  -6.4134202 -5.693049908 -10.71000004
ltibia  -0 0 53.55459976
lfoot  -0 -2.397730112 -8.907509804
ltoes  -4.250644065 -19.5611806 -102.515957
38
root  13.5736886 39.32777765 -4.410177892 -34.16699219 -85.36689758 36.56097412
lowerback  11.1722002 0.1955409944 -1.211660028
upperback  4.200489998 0.006103490014 0.8664420247
thorax  -1.884420037 -0.07335969806 1.581820011
lowerneck  1.081359982 6.91094017 -3.059540033
upperneck  12.26239967 9.015729904 1.011749983
head  3.589839935 4.265190125 1.081449986
lclavicle  0 -9.442270133e-015 7.951389973e-016
lhumerus  -10.93729973 -11.97159958 82.89080048
lradius  2.403845935e-031 -2.586574715e-031 132.9029999
lwrist  -7.062250077e-031 -3.531125038e-031 -9.905119896
lhand  -1.496451383e-031 -27.76390076 20.11240005
lfingers  90 7.125020027 -90
lthumb  89.89689403 5.08795885 91.16245106
rclavicle  0 -9.442270133e-015 7.951389973e-016
rhumerus  -20.87859917 37.68450165 -89.05039978
rradius  -1.890718317e-031 2.982285748e-031 122.3740005
rwrist  3.531125038e-031 -3.531125038e-031 3.504719973
rhand  -7.920061211e-032 -33.2840004 9.303460121
rfingers  -90 -7.125020027 -90
rthumb  -92.93752616 -24.25625642 -97.11982154
rfemur  -27.84819984 9.286820412 -3.383500099
rtibia  -0 0 43.59289932
rfoot  -0 -9.127360344 7.939819813
rtoes  5.373923086 19.29304026 -105.8922705
lfemur  -6.630090237 -5.187310219 -11.7177
ltibia  -0 0 53.15129852
lfoot  -0 2.612370014 -9.708169937
ltoes  -4.250644065 -19.5611806 -102.515957
39
root  13.43933316 39.63155671 -4.292577834 -60.36401367 -86.08740234 62.39501953
lowerback  11.48649979 0.522044003 -1.368350029
upperback  4.283410072 0.4061920047 0.7939689755
thorax  -1.984410048 0.1212889999 1.544139981
lowerneck  0.8707119823 7.098680019 -3.121380091
upperneck  12.93550014 9.313280106 0.5662999749
head  3.883980036 4.370190144 0.985747993
lclavicle  0 -9.442270133e-015 7.951389973e-016
lhumerus  -14.21420002 -11.45800018 84.02610016
lradius  2.388318372e-031 -2.600918951e-031 132.5599976
lwrist  -1.412450015e-030 -3.531125038e-031 -8.575119972
lhand  -1.496451383e-031 -27.76390076 20.11240005
lfingers  90 7.125020027 -90
lthumb  89.89689403 5.08795885 91.16245106
rclavicle  0 -9.442270133e-015 7.951389973e-016
rhumerus  -24.01449966 37.6894989 -90.09429932
rradius  -1.781283967e-031 3.048913162e-031 120.2949982
rwrist  1.059337512e-030 -3.531125038e-031 0.9905269742
rhand  -7.920061211e-032 -33.2840004 9.303460121
rfingers  -90 -7.125020027 -90
rthumb  -92.93752616 -24.25625642 -97.11982154
rfemur  -26.99950027 9.611869812 -4.243490219
rtibia  -0 0 41.45729828
rfoot  -0 -7.752940178 8.283889771
rtoes  5.373923086 19.29304026 -105.8922705
lfemur  -6.308400154 -4.464419842 -12.74699974
ltibia  -0 0 52.68230057
lfoot  -0 7.237319946 -10.36870003
ltoes  -4.250644065 -19.5611806 -102.515957
40
root  13.30035503 39.93800006 -4.188644604 -89.67199707 -86.07720184 91.49401855
lowerback  11.67370033 0.8811540008 -1.590250015
upperback  4.304820061 0.8531380296 0.9754959941
thorax  -2.085979939 0.3391149938 1.798329949
lowerneck  0.6607750058 7.258470058 -3.280369997
upperneck  13.59399986 9.584589958 0.1050340012
head  4.175330162 4.452960014 0.899600029
lclavicle  0 -9.442270133e-015 7.951389973e-016
lhumerus  -17.60009956 -11.06359959 85.40219879
lradius  2.370696617e-031 -2.616990942e-031 132.1730042
lwrist  -1.059337512e-030 -0 -7.617179871
lhand  -1.496451383e-031 -27.76390076 20.11240005
lfingers  90 7.125020027 -90
lthumb  89.89689403 5.08795885 91.16245106
rclavicle  0 -9.442270133e-015 7.951389973e-016
rhumerus  -26.95549965 37.89229965 -90.76560211
rradius  -1.651773962e-031 3.120975299e-031 117.8899994
rwrist  0 -7.062250077e-031 0.04391479865
rhand  -7.920061211e-032 -33.2840004 9.303460121
rfingers  -90 -7.125020027 -90
rthumb  -92.93752616 -24.25625642 -97.11982154
rfemur  -26.28140068 10.21790028 -4.869190216
rtibia  -0 0 39.39339828
rfoot  -0 -7.270359993 7.798779964
rtoes  5.373923086 19.29304026 -105.8922705
lfemur  -6.228909969 -3.412410021 -13.38739967
ltibia  -0 0 52.30479813
lfoot  -0 11.01509953 -11.29979992
ltoes  -4.250644065 -19.5611806 -102.515957
